<svg width="71" height="19" viewBox="0 0 71 19" fill="none" xmlns="http://www.w3.org/2000/svg">
<path d="M0.68 18V0.719999H7.472C8.568 0.719999 9.488 0.943999 10.232 1.392C10.976 1.84 11.536 2.42 11.912 3.132C12.288 3.836 12.476 4.58 12.476 5.364C12.476 6.316 12.24 7.132 11.768 7.812C11.304 8.492 10.676 8.956 9.884 9.204L9.86 8.616C10.964 8.888 11.812 9.42 12.404 10.212C12.996 10.996 13.292 11.912 13.292 12.96C13.292 13.976 13.088 14.86 12.68 15.612C12.28 16.364 11.692 16.952 10.916 17.376C10.148 17.792 9.216 18 8.12 18H0.68ZM3.224 15.612H7.736C8.304 15.612 8.812 15.504 9.26 15.288C9.716 15.072 10.072 14.764 10.328 14.364C10.592 13.956 10.724 13.472 10.724 12.912C10.724 12.392 10.608 11.924 10.376 11.508C10.152 11.084 9.824 10.752 9.392 10.512C8.968 10.264 8.468 10.14 7.892 10.14H3.224V15.612ZM3.224 7.776H7.436C7.9 7.776 8.316 7.684 8.684 7.5C9.06 7.308 9.356 7.036 9.572 6.684C9.796 6.324 9.908 5.892 9.908 5.388C9.908 4.716 9.684 4.164 9.236 3.732C8.788 3.3 8.188 3.084 7.436 3.084H3.224V7.776ZM21.428 18.36C20.14 18.36 19.008 18.08 18.032 17.52C17.064 16.952 16.308 16.164 15.764 15.156C15.228 14.14 14.96 12.964 14.96 11.628C14.96 10.212 15.224 8.984 15.752 7.944C16.288 6.904 17.032 6.1 17.984 5.532C18.936 4.964 20.044 4.68 21.308 4.68C22.628 4.68 23.752 4.988 24.68 5.604C25.608 6.212 26.3 7.08 26.756 8.208C27.22 9.336 27.404 10.676 27.308 12.228H24.8V11.316C24.784 9.812 24.496 8.7 23.936 7.98C23.384 7.26 22.54 6.9 21.404 6.9C20.148 6.9 19.204 7.296 18.572 8.088C17.94 8.88 17.624 10.024 17.624 11.52C17.624 12.944 17.94 14.048 18.572 14.832C19.204 15.608 20.116 15.996 21.308 15.996C22.092 15.996 22.768 15.82 23.336 15.468C23.912 15.108 24.36 14.596 24.68 13.932L27.14 14.712C26.636 15.872 25.872 16.772 24.848 17.412C23.824 18.044 22.684 18.36 21.428 18.36ZM16.808 12.228V10.272H26.06V12.228H16.808ZM28.8003 18V17.604L36.1563 7.284H29.4723V5.04H40.1403V5.448L32.7963 15.756H39.7803V18H28.8003ZM43.0138 2.916V0.48H45.5218V2.916H43.0138ZM43.0138 18V5.04H45.5218V18H43.0138ZM54.8733 18.36C53.5853 18.36 52.4533 18.08 51.4773 17.52C50.5093 16.952 49.7533 16.164 49.2093 15.156C48.6733 14.14 48.4053 12.964 48.4053 11.628C48.4053 10.212 48.6693 8.984 49.1973 7.944C49.7333 6.904 50.4773 6.1 51.4293 5.532C52.3813 4.964 53.4893 4.68 54.7533 4.68C56.0733 4.68 57.1973 4.988 58.1253 5.604C59.0533 6.212 59.7453 7.08 60.2013 8.208C60.6653 9.336 60.8493 10.676 60.7533 12.228H58.2453V11.316C58.2293 9.812 57.9413 8.7 57.3813 7.98C56.8293 7.26 55.9853 6.9 54.8493 6.9C53.5933 6.9 52.6493 7.296 52.0173 8.088C51.3853 8.88 51.0693 10.024 51.0693 11.52C51.0693 12.944 51.3853 14.048 52.0173 14.832C52.6493 15.608 53.5613 15.996 54.7533 15.996C55.5373 15.996 56.2133 15.82 56.7813 15.468C57.3573 15.108 57.8053 14.596 58.1253 13.932L60.5853 14.712C60.0813 15.872 59.3173 16.772 58.2933 17.412C57.2693 18.044 56.1293 18.36 54.8733 18.36ZM50.2533 12.228V10.272H59.5053V12.228H50.2533ZM63.4456 18V5.04H65.6776V8.184L65.3656 7.776C65.5256 7.36 65.7336 6.98 65.9896 6.636C66.2456 6.284 66.5416 5.996 66.8776 5.772C67.2056 5.532 67.5696 5.348 67.9696 5.22C68.3776 5.084 68.7936 5.004 69.2176 4.98C69.6416 4.948 70.0496 4.968 70.4416 5.04V7.392C70.0176 7.28 69.5456 7.248 69.0256 7.296C68.5136 7.344 68.0416 7.508 67.6096 7.788C67.2016 8.052 66.8776 8.372 66.6376 8.748C66.4056 9.124 66.2376 9.544 66.1336 10.008C66.0296 10.464 65.9776 10.948 65.9776 11.46V18H63.4456Z" fill="url(#paint0_linear_395_151)"/>
<defs>
<linearGradient id="paint0_linear_395_151" x1="1.60714" y1="4" x2="62.0106" y2="26.6126" gradientUnits="userSpaceOnUse">
<stop stop-color="#B4CD93"/>
<stop offset="1" stop-color="#427A5B"/>
</linearGradient>
</defs>
</svg>
