<svg width="227" height="80" viewBox="0 0 227 80" fill="none" xmlns="http://www.w3.org/2000/svg">
<g clip-path="url(#clip0_395_335)">
<path d="M0 1.95177C0 0.873837 0.873834 0 1.95176 0H225.048C226.126 0 227 0.873834 227 1.95176V78.0482C227 79.1262 226.126 80 225.048 80H1.95177C0.873837 80 0 79.1262 0 78.0482V1.95177Z" fill="#427A5B"/>
<path d="M746.331 330.965L-565.642 -4652.2H-226.836L1085.14 330.965H746.331Z" fill="#FFCA66"/>
<path d="M1160.32 3468.64L-151.658 -1514.53H187.148L1499.12 3468.64H1160.32Z" fill="#B4CD93"/>
<path d="M486.018 1896.29L-157.806 -553.346H8.4561L652.28 1896.29H486.018Z" fill="#FF896B"/>
<path d="M316.022 471.168L-94.2737 -1088.25H11.6817L421.977 471.168H316.022Z" fill="#FFCA66"/>
<path d="M146.668 844.949L-120.916 -170.103H-51.8149L215.769 844.949H146.668Z" fill="#FFCA66"/>
<path d="M576.424 601.779L65.5817 -1340.33H197.503L708.345 601.779H576.424Z" fill="#FF896B"/>
<path d="M35.3749 335.353L-475.467 -1606.75H-343.547L167.296 335.353H35.3749Z" fill="#B4CD93"/>
</g>
<rect opacity="0.5" width="227" height="80" rx="4" fill="#212121"/>
<rect opacity="0.2" width="227" height="80" rx="4" fill="#212121"/>
<path d="M17.516 40.324C16.66 40.324 15.856 40.164 15.104 39.844C14.352 39.516 13.7 39.052 13.148 38.452C12.604 37.852 12.208 37.144 11.96 36.328L14.384 35.656C14.616 36.4 15.02 36.972 15.596 37.372C16.172 37.764 16.812 37.956 17.516 37.948C18.148 37.94 18.704 37.792 19.184 37.504C19.664 37.216 20.04 36.828 20.312 36.34C20.584 35.844 20.72 35.276 20.72 34.636C20.72 33.676 20.42 32.884 19.82 32.26C19.228 31.636 18.452 31.324 17.492 31.324C17.22 31.324 16.94 31.364 16.652 31.444C16.372 31.524 16.108 31.628 15.86 31.756L14.684 29.776L20.78 24.388L21.044 25.108H12.644V22.72H23.036V25.108L17.972 29.98L17.948 29.164C19.036 29.164 19.98 29.408 20.78 29.896C21.58 30.376 22.196 31.032 22.628 31.864C23.068 32.688 23.288 33.612 23.288 34.636C23.288 35.74 23.028 36.72 22.508 37.576C21.996 38.432 21.304 39.104 20.432 39.592C19.568 40.08 18.596 40.324 17.516 40.324ZM32.4384 40.36C31.2624 40.36 30.2224 40.104 29.3184 39.592C28.4144 39.072 27.7024 38.36 27.1824 37.456C26.6704 36.552 26.4144 35.512 26.4144 34.336V28.384C26.4144 27.208 26.6704 26.168 27.1824 25.264C27.7024 24.36 28.4144 23.652 29.3184 23.14C30.2224 22.62 31.2624 22.36 32.4384 22.36C33.6144 22.36 34.6544 22.62 35.5584 23.14C36.4624 23.652 37.1704 24.36 37.6824 25.264C38.2024 26.168 38.4624 27.208 38.4624 28.384V34.336C38.4624 35.512 38.2024 36.552 37.6824 37.456C37.1704 38.36 36.4624 39.072 35.5584 39.592C34.6544 40.104 33.6144 40.36 32.4384 40.36ZM32.4384 37.96C33.0784 37.96 33.6584 37.808 34.1784 37.504C34.7064 37.192 35.1264 36.776 35.4384 36.256C35.7504 35.728 35.9064 35.14 35.9064 34.492V28.204C35.9064 27.564 35.7504 26.984 35.4384 26.464C35.1264 25.936 34.7064 25.52 34.1784 25.216C33.6584 24.904 33.0784 24.748 32.4384 24.748C31.7984 24.748 31.2144 24.904 30.6864 25.216C30.1664 25.52 29.7504 25.936 29.4384 26.464C29.1264 26.984 28.9704 27.564 28.9704 28.204V34.492C28.9704 35.14 29.1264 35.728 29.4384 36.256C29.7504 36.776 30.1664 37.192 30.6864 37.504C31.2144 37.808 31.7984 37.96 32.4384 37.96ZM41.5728 42.868L41.7288 41.752C42.0728 41.776 42.3408 41.712 42.5328 41.56C42.7248 41.408 42.8528 41.196 42.9168 40.924C42.9808 40.652 42.9928 40.344 42.9528 40H41.5728V37.108H44.2248V40.24C44.2248 41.184 43.9968 41.896 43.5408 42.376C43.0928 42.856 42.4368 43.02 41.5728 42.868ZM54.7978 40.36C53.6218 40.36 52.5818 40.104 51.6778 39.592C50.7738 39.072 50.0618 38.36 49.5418 37.456C49.0298 36.552 48.7738 35.512 48.7738 34.336V28.384C48.7738 27.208 49.0298 26.168 49.5418 25.264C50.0618 24.36 50.7738 23.652 51.6778 23.14C52.5818 22.62 53.6218 22.36 54.7978 22.36C55.9738 22.36 57.0138 22.62 57.9178 23.14C58.8218 23.652 59.5298 24.36 60.0417 25.264C60.5618 26.168 60.8218 27.208 60.8218 28.384V34.336C60.8218 35.512 60.5618 36.552 60.0417 37.456C59.5298 38.36 58.8218 39.072 57.9178 39.592C57.0138 40.104 55.9738 40.36 54.7978 40.36ZM54.7978 37.96C55.4378 37.96 56.0178 37.808 56.5378 37.504C57.0658 37.192 57.4858 36.776 57.7978 36.256C58.1098 35.728 58.2658 35.14 58.2658 34.492V28.204C58.2658 27.564 58.1098 26.984 57.7978 26.464C57.4858 25.936 57.0658 25.52 56.5378 25.216C56.0178 24.904 55.4378 24.748 54.7978 24.748C54.1578 24.748 53.5738 24.904 53.0458 25.216C52.5258 25.52 52.1098 25.936 51.7978 26.464C51.4858 26.984 51.3298 27.564 51.3298 28.204V34.492C51.3298 35.14 51.4858 35.728 51.7978 36.256C52.1098 36.776 52.5258 37.192 53.0458 37.504C53.5738 37.808 54.1578 37.96 54.7978 37.96ZM70.1962 40.36C69.0202 40.36 67.9802 40.104 67.0762 39.592C66.1722 39.072 65.4602 38.36 64.9402 37.456C64.4282 36.552 64.1722 35.512 64.1722 34.336V28.384C64.1722 27.208 64.4282 26.168 64.9402 25.264C65.4602 24.36 66.1722 23.652 67.0762 23.14C67.9802 22.62 69.0202 22.36 70.1962 22.36C71.3722 22.36 72.4122 22.62 73.3162 23.14C74.2202 23.652 74.9282 24.36 75.4402 25.264C75.9602 26.168 76.2202 27.208 76.2202 28.384V34.336C76.2202 35.512 75.9602 36.552 75.4402 37.456C74.9282 38.36 74.2202 39.072 73.3162 39.592C72.4122 40.104 71.3722 40.36 70.1962 40.36ZM70.1962 37.96C70.8362 37.96 71.4162 37.808 71.9362 37.504C72.4642 37.192 72.8842 36.776 73.1962 36.256C73.5082 35.728 73.6642 35.14 73.6642 34.492V28.204C73.6642 27.564 73.5082 26.984 73.1962 26.464C72.8842 25.936 72.4642 25.52 71.9362 25.216C71.4162 24.904 70.8362 24.748 70.1962 24.748C69.5562 24.748 68.9722 24.904 68.4442 25.216C67.9242 25.52 67.5082 25.936 67.1962 26.464C66.8842 26.984 66.7282 27.564 66.7282 28.204V34.492C66.7282 35.14 66.8842 35.728 67.1962 36.256C67.5082 36.776 67.9242 37.192 68.4442 37.504C68.9722 37.808 69.5562 37.96 70.1962 37.96ZM85.5946 40.36C84.4186 40.36 83.3786 40.104 82.4746 39.592C81.5706 39.072 80.8586 38.36 80.3386 37.456C79.8266 36.552 79.5706 35.512 79.5706 34.336V28.384C79.5706 27.208 79.8266 26.168 80.3386 25.264C80.8586 24.36 81.5706 23.652 82.4746 23.14C83.3786 22.62 84.4186 22.36 85.5946 22.36C86.7706 22.36 87.8106 22.62 88.7146 23.14C89.6186 23.652 90.3266 24.36 90.8386 25.264C91.3586 26.168 91.6186 27.208 91.6186 28.384V34.336C91.6186 35.512 91.3586 36.552 90.8386 37.456C90.3266 38.36 89.6186 39.072 88.7146 39.592C87.8106 40.104 86.7706 40.36 85.5946 40.36ZM85.5946 37.96C86.2346 37.96 86.8146 37.808 87.3346 37.504C87.8626 37.192 88.2826 36.776 88.5946 36.256C88.9066 35.728 89.0626 35.14 89.0626 34.492V28.204C89.0626 27.564 88.9066 26.984 88.5946 26.464C88.2826 25.936 87.8626 25.52 87.3346 25.216C86.8146 24.904 86.2346 24.748 85.5946 24.748C84.9546 24.748 84.3706 24.904 83.8426 25.216C83.3226 25.52 82.9066 25.936 82.5946 26.464C82.2826 26.984 82.1266 27.564 82.1266 28.204V34.492C82.1266 35.14 82.2826 35.728 82.5946 36.256C82.9066 36.776 83.3226 37.192 83.8426 37.504C84.3706 37.808 84.9546 37.96 85.5946 37.96Z" fill="white"/>
<path d="M11.24 67L14.216 58.36H15.386L18.362 67H17.444L14.618 58.852H14.966L12.158 67H11.24ZM12.566 64.906V64.078H17.03V64.906H12.566ZM19.4455 67V60.52H20.2375V62.08L20.0815 61.876C20.1535 61.684 20.2475 61.508 20.3635 61.348C20.4795 61.184 20.6055 61.05 20.7415 60.946C20.9095 60.798 21.1055 60.686 21.3295 60.61C21.5535 60.53 21.7795 60.484 22.0075 60.472C22.2355 60.456 22.4435 60.472 22.6315 60.52V61.348C22.3955 61.288 22.1375 61.274 21.8575 61.306C21.5775 61.338 21.3195 61.45 21.0835 61.642C20.8675 61.81 20.7055 62.012 20.5975 62.248C20.4895 62.48 20.4175 62.728 20.3815 62.992C20.3455 63.252 20.3275 63.51 20.3275 63.766V67H19.4455ZM27.2977 67C26.9337 67.076 26.5737 67.106 26.2177 67.09C25.8657 67.074 25.5497 66.998 25.2697 66.862C24.9937 66.726 24.7837 66.514 24.6397 66.226C24.5237 65.986 24.4597 65.744 24.4477 65.5C24.4397 65.252 24.4357 64.97 24.4357 64.654V58.72H25.3117V64.618C25.3117 64.89 25.3137 65.118 25.3177 65.302C25.3257 65.482 25.3677 65.642 25.4437 65.782C25.5877 66.05 25.8157 66.21 26.1277 66.262C26.4437 66.314 26.8337 66.302 27.2977 66.226V67ZM23.0497 61.276V60.52H27.2977V61.276H23.0497ZM33.3947 67.174C32.6347 67.174 32.0087 67.01 31.5167 66.682C31.0287 66.354 30.7287 65.898 30.6167 65.314L31.5167 65.164C31.6127 65.532 31.8307 65.826 32.1707 66.046C32.5147 66.262 32.9387 66.37 33.4427 66.37C33.9347 66.37 34.3227 66.268 34.6067 66.064C34.8907 65.856 35.0327 65.574 35.0327 65.218C35.0327 65.018 34.9867 64.856 34.8947 64.732C34.8067 64.604 34.6247 64.486 34.3487 64.378C34.0727 64.27 33.6607 64.142 33.1127 63.994C32.5247 63.834 32.0647 63.674 31.7327 63.514C31.4007 63.354 31.1647 63.17 31.0247 62.962C30.8847 62.75 30.8147 62.492 30.8147 62.188C30.8147 61.82 30.9187 61.498 31.1267 61.222C31.3347 60.942 31.6227 60.726 31.9907 60.574C32.3587 60.418 32.7867 60.34 33.2747 60.34C33.7627 60.34 34.1987 60.42 34.5827 60.58C34.9707 60.736 35.2827 60.956 35.5187 61.24C35.7547 61.524 35.8947 61.854 35.9387 62.23L35.0387 62.392C34.9787 62.012 34.7887 61.712 34.4687 61.492C34.1527 61.268 33.7507 61.152 33.2627 61.144C32.8027 61.132 32.4287 61.22 32.1407 61.408C31.8527 61.592 31.7087 61.838 31.7087 62.146C31.7087 62.318 31.7607 62.466 31.8647 62.59C31.9687 62.71 32.1567 62.824 32.4287 62.932C32.7047 63.04 33.0967 63.158 33.6047 63.286C34.2007 63.438 34.6687 63.598 35.0087 63.766C35.3487 63.934 35.5907 64.132 35.7347 64.36C35.8787 64.588 35.9507 64.87 35.9507 65.206C35.9507 65.818 35.7227 66.3 35.2667 66.652C34.8147 67 34.1907 67.174 33.3947 67.174ZM39.1354 67.18C38.6474 67.18 38.2374 67.092 37.9054 66.916C37.5774 66.74 37.3314 66.506 37.1674 66.214C37.0034 65.922 36.9214 65.604 36.9214 65.26C36.9214 64.908 36.9914 64.608 37.1314 64.36C37.2754 64.108 37.4694 63.902 37.7134 63.742C37.9614 63.582 38.2474 63.46 38.5714 63.376C38.8994 63.296 39.2614 63.226 39.6574 63.166C40.0574 63.102 40.4474 63.048 40.8274 63.004C41.2114 62.956 41.5474 62.91 41.8354 62.866L41.5234 63.058C41.5354 62.418 41.4114 61.944 41.1514 61.636C40.8914 61.328 40.4394 61.174 39.7954 61.174C39.3514 61.174 38.9754 61.274 38.6674 61.474C38.3634 61.674 38.1494 61.99 38.0254 62.422L37.1674 62.17C37.3154 61.59 37.6134 61.14 38.0614 60.82C38.5094 60.5 39.0914 60.34 39.8074 60.34C40.3994 60.34 40.9014 60.452 41.3134 60.676C41.7294 60.896 42.0234 61.216 42.1954 61.636C42.2754 61.824 42.3274 62.034 42.3514 62.266C42.3754 62.498 42.3874 62.734 42.3874 62.974V67H41.6014V65.374L41.8294 65.47C41.6094 66.026 41.2674 66.45 40.8034 66.742C40.3394 67.034 39.7834 67.18 39.1354 67.18ZM39.2374 66.418C39.6494 66.418 40.0094 66.344 40.3174 66.196C40.6254 66.048 40.8734 65.846 41.0614 65.59C41.2494 65.33 41.3714 65.038 41.4274 64.714C41.4754 64.506 41.5014 64.278 41.5054 64.03C41.5094 63.778 41.5114 63.59 41.5114 63.466L41.8474 63.64C41.5474 63.68 41.2214 63.72 40.8694 63.76C40.5214 63.8 40.1774 63.846 39.8374 63.898C39.5014 63.95 39.1974 64.012 38.9254 64.084C38.7414 64.136 38.5634 64.21 38.3914 64.306C38.2194 64.398 38.0774 64.522 37.9654 64.678C37.8574 64.834 37.8034 65.028 37.8034 65.26C37.8034 65.448 37.8494 65.63 37.9414 65.806C38.0374 65.982 38.1894 66.128 38.3974 66.244C38.6094 66.36 38.8894 66.418 39.2374 66.418ZM44.0694 67V58.18H44.9514V67H44.0694ZM49.4922 67.18C48.8602 67.18 48.3122 67.04 47.8482 66.76C47.3882 66.48 47.0302 66.086 46.7742 65.578C46.5182 65.07 46.3902 64.474 46.3902 63.79C46.3902 63.082 46.5162 62.47 46.7682 61.954C47.0202 61.438 47.3742 61.04 47.8302 60.76C48.2902 60.48 48.8322 60.34 49.4562 60.34C50.0962 60.34 50.6422 60.488 51.0942 60.784C51.5462 61.076 51.8882 61.496 52.1202 62.044C52.3522 62.592 52.4582 63.246 52.4382 64.006H51.5382V63.694C51.5222 62.854 51.3402 62.22 50.9922 61.792C50.6482 61.364 50.1442 61.15 49.4802 61.15C48.7842 61.15 48.2502 61.376 47.8782 61.828C47.5102 62.28 47.3262 62.924 47.3262 63.76C47.3262 64.576 47.5102 65.21 47.8782 65.662C48.2502 66.11 48.7762 66.334 49.4562 66.334C49.9202 66.334 50.3242 66.228 50.6682 66.016C51.0162 65.8 51.2902 65.49 51.4902 65.086L52.3122 65.404C52.0562 65.968 51.6782 66.406 51.1782 66.718C50.6822 67.026 50.1202 67.18 49.4922 67.18ZM47.0142 64.006V63.268H51.9642V64.006H47.0142ZM56.1877 67.174C55.4277 67.174 54.8017 67.01 54.3097 66.682C53.8217 66.354 53.5217 65.898 53.4097 65.314L54.3097 65.164C54.4057 65.532 54.6237 65.826 54.9637 66.046C55.3077 66.262 55.7317 66.37 56.2357 66.37C56.7277 66.37 57.1157 66.268 57.3997 66.064C57.6837 65.856 57.8257 65.574 57.8257 65.218C57.8257 65.018 57.7797 64.856 57.6877 64.732C57.5997 64.604 57.4177 64.486 57.1417 64.378C56.8657 64.27 56.4537 64.142 55.9057 63.994C55.3177 63.834 54.8577 63.674 54.5257 63.514C54.1937 63.354 53.9577 63.17 53.8177 62.962C53.6777 62.75 53.6077 62.492 53.6077 62.188C53.6077 61.82 53.7117 61.498 53.9197 61.222C54.1277 60.942 54.4157 60.726 54.7837 60.574C55.1517 60.418 55.5797 60.34 56.0677 60.34C56.5557 60.34 56.9917 60.42 57.3757 60.58C57.7637 60.736 58.0757 60.956 58.3117 61.24C58.5477 61.524 58.6877 61.854 58.7317 62.23L57.8317 62.392C57.7717 62.012 57.5817 61.712 57.2617 61.492C56.9457 61.268 56.5437 61.152 56.0557 61.144C55.5957 61.132 55.2217 61.22 54.9337 61.408C54.6457 61.592 54.5017 61.838 54.5017 62.146C54.5017 62.318 54.5537 62.466 54.6577 62.59C54.7617 62.71 54.9497 62.824 55.2217 62.932C55.4977 63.04 55.8897 63.158 56.3977 63.286C56.9937 63.438 57.4617 63.598 57.8017 63.766C58.1417 63.934 58.3837 64.132 58.5277 64.36C58.6717 64.588 58.7437 64.87 58.7437 65.206C58.7437 65.818 58.5157 66.3 58.0597 66.652C57.6077 67 56.9837 67.174 56.1877 67.174Z" fill="white"/>
<defs>
<clipPath id="clip0_395_335">
<path d="M0 1.95177C0 0.873837 0.873834 0 1.95176 0H225.048C226.126 0 227 0.873834 227 1.95176V78.0482C227 79.1262 226.126 80 225.048 80H1.95177C0.873837 80 0 79.1262 0 78.0482V1.95177Z" fill="white"/>
</clipPath>
</defs>
</svg>
